<?xml version="1.0" encoding="UTF-8"?>
<svg id="Layer_1" data-name="Layer 1" xmlns="http://www.w3.org/2000/svg" viewBox="0 0 1632 640">
  <defs>
    <style>
      .cls-1 {
        fill: #5ba46a;
      }

      .cls-2 {
        fill: #ed793c;
      }

      .cls-3 {
        fill: #f9f7f5;
      }

      .cls-4 {
        fill: #f6f1eb;
      }

      .cls-5 {
        fill: #f3eae1;
      }

      .cls-6 {
        fill: #f8f6f4;
      }

      .cls-7 {
        fill: #e8793f;
      }

      .cls-8 {
        fill: #f8f9f9;
      }

      .cls-9 {
        fill: #ef7333;
      }

      .cls-10 {
        fill: #114e7b;
      }

      .cls-11 {
        fill: #f9f6f3;
      }

      .cls-12 {
        fill: #0f4b78;
      }

      .cls-13 {
        fill: #f8f8f6;
      }

      .cls-14 {
        fill: #114c79;
      }

      .cls-15 {
        fill: #faf8f6;
      }

      .cls-16 {
        fill: #144b77;
      }

      .cls-17 {
        fill: #ed7936;
      }

      .cls-18 {
        fill: #f7f5f3;
      }

      .cls-19 {
        fill: #ee793b;
      }

      .cls-20 {
        fill: #f4e3d5;
      }

      .cls-21 {
        fill: #ee7435;
      }

      .cls-22 {
        fill: #e97434;
      }

      .cls-23 {
        fill: #f8f6f2;
      }

      .cls-24 {
        fill: #f8f5f2;
      }

      .cls-25 {
        fill: #f5eae1;
      }

      .cls-26 {
        fill: #f18a52;
      }

      .cls-27 {
        fill: #faf7f4;
      }

      .cls-28 {
        fill: #104978;
      }

      .cls-29 {
        fill: #f7f8f9;
      }

      .cls-30 {
        fill: #4ba077;
      }

      .cls-31 {
        fill: #a5c776;
      }

      .cls-32 {
        fill: #f8f7f5;
      }

      .cls-33 {
        fill: #f9faf8;
      }

      .cls-34 {
        fill: #ea7837;
      }

      .cls-35 {
        fill: #1e8f91;
      }

      .cls-36 {
        fill: #ec7c3d;
      }

      .cls-37 {
        fill: #ea7d42;
      }

      .cls-38 {
        fill: #54a8ae;
      }

      .cls-39 {
        fill: #f8f3ee;
      }

      .cls-40 {
        fill: #ef6e2f;
      }

      .cls-41 {
        fill: #f6f7f8;
      }

      .cls-42 {
        fill: #aecd79;
      }

      .cls-43 {
        fill: #f2f4f5;
      }

      .cls-44 {
        fill: #f7e7de;
      }

      .cls-45 {
        fill: #359c9c;
      }
    </style>
  </defs>
  <path class="cls-1" d="M966,167c.74.11,1.48.22,2.25.34,11.28,1.71,22.53,3.62,33.75,5.66,1.29.23,2.57.47,3.9.71,21.23,3.93,42.17,9.02,63.1,14.29,1.07.27,2.13.53,3.23.81,8.13,2.05,16.16,4.27,24.15,6.81,22.54,7.12,45.13,7.78,68.62,7.38-.48,3.95-.98,6.96-2.62,10.62-1.97,4.84-.47,8.29,1,13.13.26.87.53,1.75.8,2.64.27.9.55,1.8.83,2.72.27.91.55,1.81.83,2.75,1.02,3.39,2.05,6.77,3.17,10.13q2.98,1.16,6,2c4.25,4.25,1,11.99,1,18h-601q2-12,5.12-14.75c1.61-.78,3.24-1.53,4.88-2.25,1.77-.94,3.54-1.89,5.31-2.83,30.03-15.69,63.85-22.01,97.19-25.86.95-.11,1.9-.22,2.87-.33,9.71-1.11,19.39-2.08,29.17-2.39.73-.02,1.47-.05,2.22-.07q1.07-.03,2.17-.07c13.69-.44,23.19-2.15,34.59-9.89,5.21-3.28,10.82-5.85,16.36-8.5.62-.3,1.24-.6,1.88-.9,27.24-13.07,56.47-24.54,86.25-30.16.88-.18,1.76-.36,2.67-.54,33.06-6.55,67.2-4.44,100.33.54Z"/>
  <path class="cls-19" d="M510,295c13.43,10.6,23.35,24.79,26,42,.26,3.69.28,7.36.25,11.06q.01,1.41.02,2.85c-.05,17.53-7.72,32.08-19.4,44.77-12.89,12.4-29.69,17.68-47.24,17.53-17.03-1.03-32.42-9.95-44.05-22.06-12.74-14.8-15.75-34.24-14.58-53.16,2.01-15.48,10.8-30.02,22.5-40.12,4.28-3.25,8.79-5.81,13.56-8.25.65-.33,1.3-.67,1.96-1.01,19.3-9.41,43.67-5.65,60.97,6.39Z"/>
  <path class="cls-2" d="M701.31,284.81q1.51-.02,3.05-.04c16.94-.03,30.93,7.11,43.32,18.41,13.89,14.56,16.95,31.64,16.62,50.9-.66,17.41-8.89,31.17-21.31,42.91-13.15,11.89-28.3,16.48-45.89,16.34-15.94-.91-30.88-9.41-41.71-20.76-12.48-14.04-17.42-31.83-16.58-50.41,1.35-16.84,9.46-32.13,22.17-43.17,12.45-9.72,24.61-14.18,40.31-14.19Z"/>
  <path class="cls-16" d="M1079.69,285.81c.96-.01,1.91-.02,2.9-.04,17.13-.04,31.68,6.64,44.04,18.35,5.3,5.34,9.12,11.1,12.38,17.88.43.86.87,1.73,1.31,2.62,5.92,14.19,4.16,33.32-1.31,47.38-6.16,14.39-17.71,25.93-32.16,31.93-.94.35-1.87.7-2.84,1.07-.83.32-1.67.64-2.52.97-13.54,4.27-32.71,4.56-45.48-1.97-1.01-.51-2.02-1.02-3.06-1.54-15.16-8.27-24.06-19.32-29.94-35.46-.35-.96-.71-1.93-1.07-2.92-4.77-15.85-2.35-31.65,4.61-46.32,8.4-15.62,22.07-24.86,38.46-30.75,4.84-1.43,9.68-1.18,14.69-1.19Z"/>
  <path class="cls-10" d="M770,289c13.51-.06,27.02-.12,40.94-.19,4.25-.03,8.5-.05,12.88-.08q5.23-.01,7.68-.02c1.7,0,3.4-.02,5.1-.03,2.59-.02,5.17-.02,7.76-.02.75-.01,1.49-.02,2.26-.03,9.87.06,20.54,4.25,27.95,10.84,8.76,9.33,12.12,19.96,11.88,32.53,0,1.02.01,2.03.02,3.08-.1,11.71-3.34,22.17-11.31,30.96-7.34,6.86-15.6,10.09-25.57,10.07-1.3,0-2.6,0-3.94,0-1.42,0-2.83-.01-4.25-.02-1.45,0-2.9,0-4.35,0-3.81,0-7.63-.01-11.44-.02-4.58-.01-9.16-.02-13.74-.02-6.95,0-13.9-.03-20.85-.05v33h-21v-120Z"/>
  <path class="cls-30" d="M814.6,422.8c2,0,4,0,6-.01,5.59-.01,11.18-.02,16.77-.02,6.35,0,12.69-.02,19.04-.04,37.54-.15,74.81.77,112.3,3.08,6.85.42,13.7.8,20.56,1.18,22.17,1.25,44.3,2.78,66.41,4.81,2.46.23,4.93.45,7.39.67,31.55,2.86,62.96,5.96,94.18,11.39,5.74.99,11.49,1.82,17.26,2.59,18.74,2.56,37.28,6.63,55.62,11.19q1.68.42,3.39.84c7.28,1.85,14.39,4.07,21.49,6.54v1c-6.77-.72-13.52-1.59-20.26-2.52q-1.6-.22-3.23-.44c-3.4-.47-6.79-.94-10.19-1.41-2.23-.31-4.46-.61-6.69-.92-1.09-.15-2.19-.3-3.32-.46-2.23-.31-4.46-.61-6.7-.92-4.88-.67-9.75-1.34-14.61-2.08-51.46-7.7-104.14-9.68-156.01-13.05-2.83-.18-5.65-.37-8.48-.56-57.58-3.81-115.14-3.98-172.82-3.95-.93,0-1.86,0-2.83,0-12.69,0-25.37.03-38.06.07-2.48,0-4.96.01-7.44.02-17.57.04-35.13.23-52.69.68-.78.02-1.56.04-2.36.06-9.3.23-18.56.66-27.84,1.27-4,.25-7.97.39-11.97.47-1.48.03-2.95.07-4.43.1-.75.02-1.51.03-2.28.05-19.77.42-39.51,1.28-59.26,2.29-2.58.13-5.16.26-7.74.39-27.29,1.37-54.52,3.11-81.76,5.32-6.1.48-12.19.82-18.3,1.09-5.81.27-11.36.82-17.07,2-5.56,1.06-11.22,1.51-16.85,2.07-1.2.13-2.4.25-3.63.38-6.31.64-12.6,1.14-18.94,1.46-9.08.49-17.93,2.06-26.86,3.66-2.4.42-4.8.85-7.2,1.26-1.47.26-2.95.52-4.42.78-3.97.69-7.73,1.02-11.76.89,2.68-2.68,5.56-3.07,9.13-3.91q1.07-.26,2.15-.52c1.51-.36,3.02-.72,4.52-1.08,2.29-.54,4.57-1.1,6.85-1.65,1.47-.35,2.94-.71,4.41-1.06.67-.16,1.35-.33,2.04-.5,3.33-.78,6.61-1.4,10.01-1.77,3.58-.47,6.48-1.35,9.88-2.51,2.81-.64,5.65-1.15,8.48-1.66.81-.15,1.63-.3,2.47-.45,1.72-.31,3.45-.62,5.17-.93,2.58-.46,5.15-.93,7.72-1.4,8.68-1.57,17.31-2.88,26.08-3.76,5.06-.53,10.04-1.29,15.05-2.17,18.9-3.28,37.97-4.75,57.06-6.38,2.99-.26,5.98-.52,8.98-.78,24.57-2.15,49.14-4.2,73.74-5.91,1.11-.08,2.22-.16,3.37-.24,21.65-1.49,43.29-2.41,64.99-2.88,2.42-.05,4.85-.11,7.27-.17.69-.01,1.37-.03,2.08-.04,4.53-.11,9.05-.33,13.58-.61,13.51-.8,27.02-.82,40.55-.84Z"/>
  <path class="cls-33" d="M924.09,173.69q1.18.02,2.38.04,5.4.14,6.52,1.27c2.71.32,5.41.58,8.12.81,24.83,2.4,48.44,6.06,72.56,12.35,2.81.71,5.61,1.36,8.45,1.95,3.24.75,5.95,1.59,8.93,3.02.75.35,1.51.71,2.29,1.07q.82.4,1.65.8c-1.66,3.93-3.6,5.22-7.5,7-19.6,7.84-40.66,10.06-61.5,12-1.01.1-2.03.19-3.07.29-35.9,3.27-71.92,4.05-107.95,3.97-5.28-.01-10.56,0-15.84,0-22.46.04-44.76-.16-67.14-2.27,2.9-3.05,6.16-5.02,9.81-7.06q1.03-.58,2.09-1.17c12.21-6.69,25.1-12.95,38.46-16.95,2.12-.66,4.2-1.42,6.27-2.21,31.04-11.74,62.56-15.53,95.46-14.92Z"/>
  <path class="cls-21" d="M701.31,284.81q1.51-.02,3.05-.04c16.94-.03,30.93,7.11,43.32,18.41,13.89,14.56,16.95,31.64,16.62,50.9-.66,17.41-8.89,31.17-21.31,42.91-13.15,11.89-28.3,16.48-45.89,16.34-15.94-.91-30.88-9.41-41.71-20.76-12.48-14.04-17.42-31.83-16.58-50.41,1.35-16.84,9.46-32.13,22.17-43.17,12.45-9.72,24.61-14.18,40.31-14.19ZM671,309c-.77.62-1.54,1.25-2.34,1.89-8.19,7.33-15,19.06-15.81,30.16-.89,16.99,2.43,30.78,13.88,43.94,10.99,10.57,24.24,13.69,38.93,13.41,12.68-.64,23.55-6.32,32.33-15.4,5.49-6.35,8.59-13.01,11-21,.23-.67.45-1.33.68-2.02,3.63-11.92,1.3-24.89-4.11-35.88-1.43-2.46-2.93-4.79-4.57-7.11-.74-1.05-1.49-2.1-2.25-3.19-10.51-10.75-23.07-15.82-37.94-16.12-11.85.12-20.73,3.83-29.81,11.31Z"/>
  <path class="cls-9" d="M510,295c13.43,10.6,23.35,24.79,26,42,.26,3.69.28,7.36.25,11.06q.01,1.41.02,2.85c-.05,17.53-7.72,32.08-19.4,44.77-12.89,12.4-29.69,17.68-47.24,17.53-17.03-1.03-32.42-9.95-44.05-22.06-12.74-14.8-15.75-34.24-14.58-53.16,2.01-15.48,10.8-30.02,22.5-40.12,4.28-3.25,8.79-5.81,13.56-8.25.65-.33,1.3-.67,1.96-1.01,19.3-9.41,43.67-5.65,60.97,6.39ZM436.69,313.8c-9.73,12.67-13.92,25.19-12.69,41.2,2.2,13.98,9.56,26.22,20.53,35.04,10.02,6.94,22.28,10.66,34.47,8.96,15.32-3.19,27.07-9.83,36-23,7.76-12.9,9.83-25.78,6.88-40.56-3.67-14.38-11.67-23.6-23.88-31.44-.62-.42-1.24-.83-1.88-1.26-18.59-11.67-45.29-4.07-59.43,11.05Z"/>
  <path class="cls-40" d="M525,289h123v22h-51v100h-21v-101h-51v-21Z"/>
  <path class="cls-28" d="M1143,289h125v21h-52v99h-21q-.49-48.51-1-98c-16.83-.33-33.66-.66-51-1v-21Z"/>
  <path class="cls-14" d="M935,289h21v98h71v22h-92v-120Z"/>
  <path class="cls-8" d="M791,311c7.97-.06,15.95-.12,23.92-.16,3.71-.02,7.43-.04,11.14-.07,3.58-.03,7.16-.05,10.74-.06,1.36,0,2.73-.02,4.09-.03,1.91-.02,3.83-.02,5.74-.02,1.09,0,2.18-.01,3.3-.02,4.81.56,8.85,2.47,11.89,6.3,3.62,5.07,3.43,9.77,3.5,15.81q.04,1.16.09,2.34c.06,5.61-.8,10.45-4.4,14.91-5.44,5.36-9.91,5.57-17.4,5.57-1.36-.03-2.71-.05-4.07-.08-1.4,0-2.8-.02-4.21-.02-3.67-.02-7.34-.07-11.01-.12-3.75-.05-7.51-.07-11.26-.1-7.35-.05-14.7-.15-22.05-.24v-44Z"/>
  <path class="cls-29" d="M1108.88,305.31c7.31,5.03,12.09,10.2,16.56,17.81q.53.9,1.07,1.81c1.95,3.49,2.92,6.05,2.49,10.06-5.3,3.19-11.32,2.41-17.31,2.44-1.21.03-2.42.07-3.67.1-7.48.05-11.43-.5-17.02-5.54-4.49-1.96-8.13-2.63-13-2-3.16,1.39-6.19,2.94-9.23,4.59-6.08,3.09-12.14,2.59-18.83,2.6-1.1.01-2.2.02-3.34.04q-1.58,0-3.2,0c-.96,0-1.93,0-2.92.01q-2.48-.24-5.48-2.24c.36-9.59,5.49-17.19,12-24,17.6-15.66,41.68-17.83,61.88-5.69Z"/>
  <path class="cls-12" d="M900,289h20v120h-20v-120Z"/>
  <path class="cls-4" d="M500.98,305.93c10.9,7.49,18.26,17.95,21.27,30.88,2.86,16.65-1.35,30.76-10.88,44.54-8.7,10.83-22.1,16.22-35.57,18.09-14.21.57-27.17-5.19-37.55-14.63-6.79-7.28-10.99-16.2-13.25-25.81-.18-.61-.36-1.22-.55-1.84-2.92-14.03,1.4-26.6,8.71-38.47,15.56-22.73,45.51-26.93,67.82-12.76ZM439.75,317.19c-9.95,11.73-11.59,23.46-10.98,38.22.94,10.72,7.16,20.96,14.85,28.28,11.72,9.73,23.76,11.38,38.38,10.31,11.63-2.02,21.64-8.98,28.5-18.51,7.26-12.06,9.53-26.35,7-40.21-3.77-12.09-10.79-20.73-21.5-27.28-19.9-10.38-40.58-7.16-56.25,9.19Z"/>
  <path class="cls-39" d="M731,307c10.91,8.32,17.87,20.42,20,34,1.17,13.74-1.85,26.8-10,38-.45.63-.9,1.27-1.37,1.92-6.97,8.92-17.55,15.01-28.63,17.08-10.6,1.19-21.44,1.17-31-4-.94-.51-1.88-1.02-2.86-1.54-11.94-7.04-19.73-18.11-23.73-31.41-2-9.93-1.68-22.83,2.59-32.05.38-.87.76-1.75,1.15-2.65,5.69-11.73,15.01-20.12,26.85-25.35.71-.34,1.43-.68,2.16-1.02,15.27-6.24,31.45-.81,44.84,7.02ZM666.05,319.4c-8.6,10.92-9.97,23.24-9.05,36.6,1.87,11.72,8.62,22.81,18,30,12.63,7.67,25.26,10.44,39.83,7.13,11.77-4.25,20.98-11.81,26.64-23.05,5.84-13.4,7.33-25.06,2.53-39.07-6.63-14.43-16.2-22.36-31-28q-2.92-.92-6-1c-.86-.06-1.72-.12-2.61-.19-15.72-.65-27.65,6.55-38.35,17.59Z"/>
  <path class="cls-41" d="M1058.25,353.25c6.99,1.92,9.95,5.65,13.75,11.75,2.93,7.73,4.23,16.78,3,25q-1.52,2.84-3,5c-11.86-.45-21.08-7.62-29-16-5.3-6.5-9.29-14.08-10.5-22.44q.5-2.56,2.22-4.2c6.77-4.05,16.41-.89,23.53.88Z"/>
  <path class="cls-29" d="M1130,353c1.11,9.54-3.47,18.51-9.19,25.88-6.86,7.81-16.63,15.62-27.38,16.38-.8-.08-1.61-.17-2.44-.25-4.11-6.83-2.37-16.2-1-23.69,1.87-7.23,5.53-13.51,11.98-17.56,7.79-3.26,20.52-5.02,28.02-.75Z"/>
  <path class="cls-17" d="M327.81,292.75c.74,0,1.47,0,2.23,0,.84,0,1.69,0,2.56,0,.93,0,1.86.01,2.81.02.98,0,1.95,0,2.96,0,3.24,0,6.47.02,9.71.03,2.24,0,4.48,0,6.72,0,5.9,0,11.8.03,17.71.05,6.02.02,12.04.03,18.06.04,11.82.02,23.63.06,35.45.1-.41.47-.82.94-1.24,1.43-.54.62-1.08,1.25-1.63,1.89-.53.61-1.07,1.23-1.62,1.86q-1.67,1.96-3.51,4.82c-2.95.3-5.69.4-8.64.37-.89,0-1.79,0-2.71.01-2.97,0-5.93,0-8.9-.02-2.06,0-4.11,0-6.17,0-4.31,0-8.62-.01-12.93-.03-5.54-.02-11.07-.02-16.61-.02-4.24,0-8.49,0-12.73-.01-2.04,0-4.08,0-6.12,0-2.85,0-5.7-.01-8.55-.03q-1.27,0-2.58,0-5.84-.05-8.07-2.28-.25-3,0-6,2-2,3.81-2.25Z"/>
  <path class="cls-22" d="M343.56,343.76q1.62,0,3.27.01,1.83,0,3.7,0c1.34.01,2.67.02,4.01.03,1.36,0,2.73,0,4.09,0,3.59,0,7.19.03,10.78.05,3.67.02,7.33.03,11,.04,7.2.02,14.39.06,21.59.1v10c-7.77.07-15.54.12-23.31.16-3.61.02-7.22.04-10.83.07-3.48.03-6.96.05-10.45.06-1.98,0-3.95.03-5.93.06-1.2,0-2.4,0-3.64,0q-1.59,0-3.21.02-2.64-.36-4.48-1.72c-1.63-2.31-1.51-3.88-1.15-6.64q2-2,4.56-2.24Z"/>
  <path class="cls-34" d="M359.3,317.66c1.08,0,2.16,0,3.28,0,1.17.02,2.33.03,3.53.05,1.19,0,2.39,0,3.62.01,3.82.02,7.64.05,11.46.09,2.59.02,5.18.03,7.76.04,6.35.03,12.7.08,19.05.15-.66,3.63-1.32,7.26-2,11-7.35.07-14.7.13-22.05.16-2.5.02-5,.04-7.5.06-3.59.04-7.18.05-10.78.07-1.12.02-2.24.03-3.4.05q-1.56,0-3.15,0c-.92,0-1.83.01-2.78.02-2.79-.43-3.68-1.11-5.33-3.36-.42-2.82-.51-4.3,1.19-6.63,2.46-1.86,4.04-1.73,7.11-1.71Z"/>
  <path class="cls-23" d="M478,309c10.07,1.16,18.11,5.56,25,13q5,6.61,5,11c-2.54.65-5.08,1.29-7.62,1.94-.71.18-1.43.36-2.16.55-1.41.36-2.83.7-4.25,1.02q-2.16.5-4.99,1.55c-4.28-.1-6.33-1.84-9.37-4.75-2.98-4.29-2.45-8.72-2.11-13.75.04-1.02.07-2.04.11-3.08.09-2.5.22-4.99.39-7.48Z"/>
  <path class="cls-36" d="M359.06,368.76c.85,0,1.7,0,2.57.01.96,0,1.92,0,2.91,0,1.04.01,2.08.02,3.15.03,1.06,0,2.13,0,3.22,0,3.4.01,6.81.04,10.21.06,2.3.01,4.61.02,6.91.03,5.66.02,11.31.06,16.96.1.67,1.46,1.34,2.92,2,4.38.37.81.74,1.62,1.12,2.46q.88,2.16.88,4.16c-7.21.1-14.42.17-21.62.22-2.45.02-4.91.05-7.36.08-3.52.05-7.04.07-10.57.09q-1.65.03-3.33.06c-1.02,0-2.04,0-3.09,0q-1.35.01-2.73.03-2.3-.48-4.09-2.35c-1.47-2.61-1.59-4.18-1.21-7.14q2-2,4.06-2.24Z"/>
  <path class="cls-18" d="M436,341c7.28,1.26,18.04,3.17,22.75,9.26,1.36,3.95,1.47,6.76.25,10.74q-1.03,1.83-2.29,3.67-.67,1-1.36,2.01c-.47.68-.94,1.36-1.42,2.07-.47.7-.94,1.39-1.43,2.11-1.16,1.72-2.33,3.43-3.51,5.14q-3.8-.77-5.6-2.82c-6.13-9.64-9.07-17.63-8.4-29.18.33-.99.66-1.98,1-3Z"/>
  <path class="cls-6" d="M739,341c.66,12.31.19,22.51-7.62,32.75q-2.38,2.25-5.38,2.25c-1.85-2.21-3.49-4.38-5.12-6.75-.46-.63-.91-1.27-1.38-1.92-2.73-3.88-4.74-6.85-4.25-11.77q1.67-6.75,4.68-9c2.33-1.03,4.64-1.82,7.07-2.57,1.44-.58,2.88-1.16,4.31-1.75q3.69-1.25,7.69-1.25Z"/>
  <path class="cls-11" d="M469,310q1.28,18.38-1.46,23.99c-2.7,2.58-4.97,3.76-8.65,4.35-6.65-.27-12.94-3.61-18.89-6.34.7-7.01,6.14-11.34,11-16,5.93-4.54,10.45-6.14,18-6Z"/>
  <path class="cls-15" d="M706,310c11.02.9,17.41,4.68,25.11,12.71,2.46,2.99,3.72,5.62,4.89,9.29-4.36,1.7-8.74,3.3-13.19,4.75-.8.26-1.6.53-2.42.8-3.7.7-5.95.25-9.25-1.57-3.03-2.13-4.87-3.75-5.7-7.44-.13-2.84-.05-5.58.12-8.42q.05-1.46.1-2.95c.08-2.39.2-4.78.34-7.17Z"/>
  <path class="cls-18" d="M511,342c.97,11.8-.33,19.97-7,30q-2.23,2.39-4,4c-5.6-1.87-9.18-8.23-12.15-13.19-1.62-3.48-1.01-6.22.17-9.73.32-.69.65-1.38.98-2.09.26-.71.51-1.41.78-2.14,1.74-2.65,3.56-3.07,6.54-4.05.94-.32,1.89-.65,2.86-.98,4.1-1.21,7.53-1.83,11.82-1.83Z"/>
  <path class="cls-27" d="M697,310c.23,3.54.37,7.08.5,10.62q.1,1.5.2,3.03.19,7.27-2.41,10.39c-3.29,2.57-5.31,3.92-9.55,4.08q-13.75-4.12-17.75-6.12c1.35-7.54,7.9-13.56,13.95-17.78,4.85-2.89,9.36-4.4,15.05-4.22Z"/>
  <path class="cls-32" d="M664,342c7.4.44,14.57,2.21,21,6,2.02,2.89,2.84,5.49,3,9-.83,4.28-3,7.61-5.31,11.25-.39.65-.78,1.3-1.19,1.97q-1.18,1.86-3.5,4.78-4,0-5.56-1.14c-8.34-9.68-9.03-19.62-8.44-31.86Z"/>
  <path class="cls-3" d="M703.93,364.12c6.33,1.81,9.84,8.48,13.07,13.88.72,1.65,1.41,3.3,2,5-6.02,3.24-11.5,4.41-18.25,4.44q-1.01.01-2.04.03c-4.6-.08-7.86-.95-11.71-3.47q-1.38-2.19-2-4c1.64-2.31,3.29-4.63,4.94-6.94.47-.66.94-1.32,1.42-2,4.09-5.74,5.42-6.93,12.57-6.94Z"/>
  <path class="cls-13" d="M470.36,364.74q7.46.35,10.75,2.87c1.8,2.05,3.36,4.14,4.89,6.39.51.67,1.01,1.33,1.54,2.02q3.46,4.59,3.46,6.98c-8.62,4.74-17.41,5.14-27,4-3.35-1.32-5.23-2.64-8-5,1.6-3.53,3.71-6.51,6-9.62.7-.96,1.4-1.92,2.12-2.91q3.36-4.4,6.23-4.72Z"/>
  <path class="cls-37" d="M398.61,393.3c1.62-.03,3.25-.09,4.87-.16q13.44-.63,18.65,3.11,5.87,6.45,5.87,8.76c-6.05.1-12.1.17-18.15.22-2.06.02-4.12.05-6.17.08-2.96.05-5.92.07-8.88.09q-1.38.03-2.79.06-6.37,0-9.63-2.31-1.38-2.14-1.25-4.76c2.51-6.81,11.32-4.98,17.49-5.08Z"/>
  <path class="cls-43" d="M1085,338c3.54,1.65,4.81,2.72,7,6,.46,4.96.15,8.06-3,12-3.42,2.57-6.85,2.51-11,2-2.63-2.17-4.47-3.95-6-7-.39-4.18-.45-6.31,1.88-9.88,3.59-3.59,6.12-3.46,11.12-3.12Z"/>
  <path class="cls-7" d="M312,318c4.27-.12,8.54-.19,12.81-.25,1.21-.03,2.43-.07,3.68-.1q1.75-.02,3.53-.04,1.61-.03,3.25-.06,2.73.45,4.61,2.31,1.11,2.14.93,4.76-.81,2.38-2.81,4.38c-4.13.48-8.29.37-12.44.38-1.16.02-2.32.05-3.51.07-1.11,0-2.22,0-3.36.01q-1.53.01-3.09.02-2.6-.49-4.48-2.35-1.13-2.14-.88-4.76.75-2.38,1.75-4.38Z"/>
  <path class="cls-11" d="M705,341q2.44,1.62,4,4c.64,3.74.26,5.51-1.5,8.88-2.63,2.23-3.28,2.51-6.56,2.69q-3.94-.56-5.94-2.12c-1.39-3.39-1.45-5.81-1-9.44,2.89-4.51,5.88-4.73,11-4Z"/>
  <path class="cls-11" d="M477,341q2.44,1.62,4,4c.64,3.74.26,5.51-1.5,8.88-2.63,2.23-3.28,2.51-6.56,2.69q-3.94-.56-5.94-2.12c-1.39-3.39-1.45-5.81-1-9.44,2.89-4.51,5.88-4.73,11-4Z"/>
  <path class="cls-42" d="M468,455l-2,1c1.32.66,2.64,1.32,4,2-7.76,1.43-15.53,2.8-23.31,4.12-1.04.18-2.09.36-3.17.55-4.89.83-9.54,1.58-14.52,1.32,2.7-2.7,5.67-3.11,9.27-3.98.72-.18,1.44-.35,2.18-.54,1.52-.37,3.05-.74,4.57-1.11,2.33-.56,4.66-1.14,6.99-1.72,1.48-.36,2.96-.72,4.45-1.08.69-.17,1.39-.35,2.11-.53,3.44-.81,6.08-1.37,9.43-.06Z"/>
  <path class="cls-45" d="M1221,457c7.21.61,13.95,2.08,20.94,3.94,1.04.26,2.08.53,3.15.8q1.49.39,3,.79,1.34.35,2.71.71,2.2.76,4.2,2.76c-7.89-.82-15.72-1.93-23.56-3.06-1.29-.19-2.59-.37-3.92-.56-3.17-.46-6.34-.91-9.51-1.37v-2h3v-2Z"/>
  <path class="cls-24" d="M512,378c-2.53,5.7-6.16,9.46-11.38,12.81q-1.37.91-2.77,1.83c-3.2,1.52-5.35,1.62-8.85,1.36,4.97-5.48,15.34-16,23-16Z"/>
  <path class="cls-20" d="M432,329c-.32,1.13-.63,2.27-.96,3.44-1.13,4.52-1.47,8.92-1.66,13.56-.04.77-.08,1.55-.12,2.35-.09,1.88-.18,3.77-.26,5.65h-1v-12h-3v13h-1q-.66-18.23,3-25,3-1,5-1Z"/>
  <path class="cls-44" d="M746,329q2,1,2.85,3.05c2.13,7.43,2.48,14.25,2.15,21.95h-1v-11c-.99.33-1.98.66-3,1q-3.32-10.37-1-15Z"/>
  <path class="cls-38" d="M1249.38,463c1.06.37,2.12.74,3.21,1.12.8.29,1.59.58,2.41.88v1c-7.7-.8-15.34-1.88-23-3v-1c6.34-1.49,11.23-1.18,17.38,1Z"/>
  <path class="cls-31" d="M468,455l-2,1c1.32.66,2.64,1.32,4,2-3.15,1.05-5.39,1.1-8.69,1.06-.99,0-1.99-.02-3.01-.03q-1.14-.02-2.3-.04c.33-.99.66-1.98,1-3,3.91-1.48,6.99-2.6,11-1Z"/>
  <path class="cls-25" d="M446,306l2,1c-1.27,1.5-2.54,2.99-3.81,4.49q-1.28,1.51-2.19,3.51c-2.31,1.31-4.48,2.16-7,3,1.5-3.67,3.64-5.69,6.62-8.25q1.23-1.06,2.48-2.14c.63-.53,1.25-1.06,1.9-1.61Z"/>
  <path class="cls-26" d="M680,303q-.99.77-2,1.56c-3.75,3.05-7.38,6.24-11,9.44l-2-2c1.55-1.51,3.11-3.01,4.69-4.5.87-.84,1.74-1.67,2.64-2.53,2.93-2.15,4.14-2.43,7.68-1.97Z"/>
  <path class="cls-35" d="M1229,459c2.97.33,5.94.66,9,1-.33.66-.66,1.32-1,2h-8v-3Z"/>
  <path class="cls-5" d="M501,307c.99.33,1.98.66,3,1,.33,2.31.66,4.62,1,7q-2-1.19-4-3-.25-2.69,0-5Z"/>
</svg>