<?xml version="1.0" encoding="UTF-8"?>
<svg version="1.1" xmlns="http://www.w3.org/2000/svg" width="1632" height="640">
<path d="M0 0 C538.56 0 1077.12 0 1632 0 C1632 211.2 1632 422.4 1632 640 C1093.44 640 554.88 640 0 640 C0 428.8 0 217.6 0 0 Z " fill="#F6F6F6" transform="translate(0,0)"/>
<path d="M0 0 C0.74185547 0.11126221 1.48371094 0.22252441 2.24804688 0.3371582 C13.53118897 2.04244028 24.7740272 3.9534993 36 6 C37.28680664 6.23444824 38.57361328 6.46889648 39.89941406 6.71044922 C61.13145759 10.64529171 82.06804201 15.72798572 103 21 C104.06508789 21.26731934 105.13017578 21.53463867 106.22753906 21.81005859 C114.35440344 23.86104281 122.38892059 26.07971524 130.375 28.625 C152.91317302 35.74188576 175.50504447 36.4092101 199 36 C198.5188385 39.95307192 198.01593179 42.96445985 196.375 46.625 C194.40407665 51.46272094 195.90902834 54.91163335 197.375 59.7578125 C197.63796875 60.63050781 197.9009375 61.50320312 198.171875 62.40234375 C198.44515625 63.30082031 198.7184375 64.19929688 199 65.125 C199.27328125 66.03121094 199.5465625 66.93742187 199.828125 67.87109375 C200.85239515 71.26022291 201.88032858 74.64098575 203 78 C205.97503122 79.15835673 205.97503122 79.15835673 209 80 C213.24918293 84.24918293 210 91.99074787 210 98 C11.67 98 -186.66 98 -391 98 C-389 86 -389 86 -385.875 83.25 C-384.26450904 82.46933113 -382.63644889 81.72467925 -381 81 C-379.22828388 80.05643462 -377.45659749 79.11281317 -375.68530273 78.16845703 C-345.65300537 62.48251802 -311.83206401 56.15456989 -278.5 52.3125 C-277.55182404 52.2027887 -276.60364807 52.09307739 -275.6267395 51.9800415 C-265.91272771 50.87354261 -256.23630906 49.89964018 -246.4609375 49.59375 C-245.72798462 49.57054184 -244.99503174 49.54733368 -244.23986816 49.52342224 C-243.16642151 49.48947105 -243.16642151 49.48947105 -242.07128906 49.45483398 C-228.3788654 49.01072869 -218.88175977 47.30034325 -207.48535156 39.56396484 C-202.27682112 36.28637683 -196.67005718 33.7153313 -191.125 31.0625 C-190.50573639 30.7645755 -189.88647278 30.466651 -189.2484436 30.15969849 C-162.00820565 17.09446262 -132.77682689 5.61886149 -103 0 C-102.11844238 -0.17901855 -101.23688477 -0.35803711 -100.32861328 -0.54248047 C-67.2669192 -7.09729183 -33.12944437 -4.98345456 0 0 Z " fill="#5BA46A" transform="translate(966,167)"/>
<path d="M0 0 C13.42959452 10.59784921 23.35006176 24.7896484 26 42 C26.26247899 45.693042 26.28052394 49.36147259 26.25 53.0625 C26.26160156 54.47499023 26.26160156 54.47499023 26.2734375 55.91601562 C26.22464583 73.44442151 18.55097148 87.9915087 6.875 100.6875 C-6.01484592 113.08842073 -22.81309195 118.36782937 -40.3671875 118.21875 C-57.39901991 117.1931773 -72.78417818 108.27270141 -84.41796875 96.15625 C-97.15416787 81.35177923 -100.16898692 61.91877687 -99 43 C-96.99070004 27.51548651 -88.19538753 12.98357616 -76.5 2.875 C-72.22216087 -0.37800904 -67.70883897 -2.93480728 -62.9375 -5.375 C-62.28910156 -5.70902832 -61.64070313 -6.04305664 -60.97265625 -6.38720703 C-41.67292708 -15.79970045 -17.30415975 -12.03656994 0 0 Z " fill="#EE793B" transform="translate(510,295)"/>
<path d="M0 0 C1.51110352 -0.01836914 1.51110352 -0.01836914 3.05273438 -0.03710938 C19.9925053 -0.07021642 33.98414362 7.07745448 46.375 18.375 C60.2630346 32.93233747 63.32128751 50.01239882 63 69.2734375 C62.33930746 86.68819181 54.11167901 100.43921599 41.6875 112.1875 C28.53712772 124.07937618 13.3860505 128.67040149 -4.19921875 128.53125 C-20.13791886 127.61763929 -35.07997466 119.12093676 -45.90771484 107.76757812 C-58.39033946 93.72733716 -63.32449546 75.94164914 -62.48730469 57.36181641 C-61.13377599 40.52588537 -53.02814798 25.22756383 -40.3125 14.1875 C-27.86202037 4.46413231 -15.70731284 0.00993505 0 0 Z " fill="#ED793C" transform="translate(701.3125,284.8125)"/>
<path d="M0 0 C0.95583984 -0.01224609 1.91167969 -0.02449219 2.89648438 -0.03710938 C20.02858372 -0.07214434 34.57648215 6.60737289 46.9375 18.3125 C52.23712201 23.65694104 56.05876826 29.41478664 59.3125 36.1875 C59.745625 37.05117188 60.17875 37.91484375 60.625 38.8046875 C66.54662655 52.99191778 64.78411412 72.12494033 59.3125 86.1875 C53.15417158 100.58189074 41.60491246 112.12066647 27.1484375 118.12109375 C26.21257812 118.47300781 25.27671875 118.82492187 24.3125 119.1875 C23.47976563 119.50847656 22.64703125 119.82945312 21.7890625 120.16015625 C8.25016319 124.42828433 -10.91852726 124.71643176 -23.6875 118.1875 C-24.69683594 117.67832031 -25.70617188 117.16914063 -26.74609375 116.64453125 C-41.90702673 108.37321076 -50.80305868 97.32012565 -56.6875 81.1875 C-57.04199219 80.22328125 -57.39648438 79.2590625 -57.76171875 78.265625 C-62.52948849 62.41329355 -60.10765052 46.61934031 -53.1484375 31.94140625 C-44.7498879 16.31851185 -31.07750715 7.08108355 -14.6875 1.1875 C-9.84536849 -0.24148207 -5.00975076 0.00331114 0 0 Z " fill="#144B77" transform="translate(1079.6875,285.8125)"/>
<path d="M0 0 C13.509375 -0.061875 27.01875 -0.12375 40.9375 -0.1875 C45.18874756 -0.21481201 49.43999512 -0.24212402 53.82006836 -0.27026367 C59.04797363 -0.28381348 59.04797363 -0.28381348 61.50245667 -0.28633118 C63.20125187 -0.29091042 64.90003787 -0.30140417 66.59877014 -0.31672668 C69.18572694 -0.33887602 71.77209263 -0.34171175 74.35913086 -0.34057617 C75.10432197 -0.3513705 75.84951307 -0.36216482 76.61728573 -0.37328625 C86.49197615 -0.31575556 97.16196639 3.87262221 104.5625 10.46875 C113.32191337 19.79942945 116.68486091 30.42449061 116.4375 43 C116.44458984 44.01578125 116.45167969 45.0315625 116.45898438 46.078125 C116.36142134 57.78568939 113.12060787 68.24667106 105.1484375 77.04296875 C97.80793081 83.90093217 89.54831273 87.13284557 79.57910156 87.11352539 C78.27805481 87.11344986 76.97700806 87.11337433 75.63653564 87.11329651 C74.22123171 87.10819024 72.80592816 87.10297425 71.390625 87.09765625 C69.93902637 87.09579035 68.48742712 87.09436726 67.03582764 87.09336853 C63.22180431 87.08955688 59.40781927 87.07973815 55.59381104 87.06866455 C51.01410208 87.05661928 46.4343803 87.05204175 41.85466003 87.04621124 C34.90308009 87.03652566 27.9515841 87.01735967 21 87 C21 97.89 21 108.78 21 120 C14.07 120 7.14 120 0 120 C0 80.4 0 40.8 0 0 Z " fill="#114E7B" transform="translate(770,289)"/>
<path d="M0 0 C1.9994437 -0.00431107 3.9988874 -0.00862265 5.99833101 -0.0129745 C11.58871033 -0.02472235 17.17907989 -0.03229636 22.76947027 -0.0357697 C29.11648261 -0.03974221 35.46334188 -0.0517341 41.81030273 -0.078125 C79.35325135 -0.23078088 116.62491737 0.68847656 154.11082458 3.00341988 C160.96216556 3.41910875 167.81559586 3.79892279 174.66872501 4.18378067 C196.83531084 5.43343646 218.96478312 6.96528498 241.07409668 8.99023438 C243.5365373 9.21539541 245.99921174 9.43787679 248.46191406 9.66015625 C280.00796495 12.51745029 311.42164648 15.62457349 342.640625 21.0546875 C348.38108243 22.04864374 354.12748501 22.87811165 359.90234375 23.640625 C378.64538661 26.20138303 397.17744315 30.27548519 415.52734375 34.828125 C417.20485718 35.24336426 417.20485718 35.24336426 418.91625977 35.66699219 C426.19885874 37.51956873 433.30628212 39.73250251 440.40234375 42.203125 C440.40234375 42.533125 440.40234375 42.863125 440.40234375 43.203125 C433.62967023 42.48095041 426.88701374 41.61426953 420.140625 40.6796875 C418.53999458 40.45942398 418.53999458 40.45942398 416.9070282 40.23471069 C413.5094813 39.76694472 410.11215657 39.2975877 406.71484375 38.828125 C404.48504131 38.52072258 402.25522371 38.21343005 400.02539062 37.90625 C398.93104706 37.75532898 397.83670349 37.60440796 396.709198 37.44891357 C394.47768926 37.14179716 392.24601683 36.83586803 390.01419067 36.53106689 C385.13825702 35.86397254 380.26510899 35.1898483 375.39990234 34.44824219 C323.94150206 26.74938906 271.26466273 24.76437104 219.38755035 21.39772797 C216.56231563 21.21355342 213.73727896 21.02662319 210.91229248 20.83868408 C153.33317473 17.02380561 95.76984469 16.85859674 38.08984375 16.890625 C37.1574824 16.89107016 36.22512106 16.89151532 35.26450634 16.89197397 C22.57757998 16.89850382 9.89075033 16.92012974 -2.79612184 16.95769453 C-5.27646079 16.96467633 -7.75679976 16.97038342 -10.23714256 16.97580338 C-27.80550768 17.01729849 -45.36348429 17.20638413 -62.92651367 17.65551758 C-63.70497418 17.67475009 -64.48343469 17.69398261 -65.28548491 17.71379793 C-74.58315088 17.94847569 -83.84683771 18.36881134 -93.12707996 18.98370838 C-97.1227419 19.23632194 -101.09893736 19.37600566 -105.1015625 19.45581055 C-106.57788468 19.48841912 -108.05420288 19.5212078 -109.53051758 19.55415344 C-110.28313873 19.56992243 -111.03575989 19.58569141 -111.81118774 19.60193825 C-131.58146459 20.02618009 -151.32116765 20.87988732 -171.06927872 21.88702011 C-173.6478765 22.01817943 -176.22656109 22.14751181 -178.80526733 22.27651978 C-206.09287384 23.64621396 -233.32801894 25.38791328 -260.56155396 27.60011292 C-266.65799685 28.08501631 -272.75014935 28.41911401 -278.859375 28.69140625 C-284.67296699 28.95804513 -290.22192965 29.50744611 -295.93212891 30.69482422 C-301.49605249 31.75583254 -307.15318857 32.20272606 -312.78515625 32.765625 C-313.98462891 32.89130859 -315.18410156 33.01699219 -316.41992188 33.14648438 C-322.7334448 33.79030866 -329.02067613 34.28817534 -335.359375 34.6015625 C-344.43519837 35.09334392 -353.2871449 36.66637678 -362.22265625 38.265625 C-364.62066271 38.6906096 -367.0190445 39.11295456 -369.41854858 39.52940369 C-370.89312316 39.78568287 -372.36685598 40.04687516 -373.83950806 40.3139801 C-377.80787208 41.00774899 -381.57068811 41.33139488 -385.59765625 41.203125 C-382.92159447 38.52706322 -380.03766949 38.13374309 -376.46484375 37.29296875 C-375.39884445 37.03441856 -375.39884445 37.03441856 -374.31130981 36.77064514 C-372.80406489 36.40674522 -371.29596797 36.04635902 -369.78710938 35.68920898 C-367.50041564 35.14720468 -365.21691724 34.59311989 -362.93359375 34.03710938 C-361.465019 33.68416583 -359.99627386 33.33193037 -358.52734375 32.98046875 C-357.85307343 32.81691391 -357.1788031 32.65335907 -356.48410034 32.48484802 C-353.15441832 31.7022037 -349.87308529 31.08680996 -346.47705078 30.71704102 C-342.89358345 30.24232744 -339.99790296 29.37124069 -336.59765625 28.203125 C-333.78562603 27.56092373 -330.95255615 27.05313878 -328.11328125 26.546875 C-327.29881531 26.39907593 -326.48434937 26.25127686 -325.64520264 26.09899902 C-323.92093715 25.78754481 -322.19625549 25.47838692 -320.47119141 25.17138672 C-317.89600949 24.71175533 -315.32300522 24.24117464 -312.75 23.76953125 C-304.07423471 22.20123429 -295.44340868 20.88676461 -286.67047119 20.01281738 C-281.61086873 19.48702854 -276.63362434 18.72083357 -271.62384033 17.84265137 C-252.72858961 14.56223941 -233.65421592 13.09580831 -214.56135559 11.45817947 C-211.56927845 11.20068282 -208.57751028 10.93984674 -205.58581543 10.677948 C-181.01968788 8.52844782 -156.44841834 6.4790513 -131.84765625 4.765625 C-130.73551758 4.68803955 -129.62337891 4.6104541 -128.47753906 4.53051758 C-106.82476717 3.03761594 -85.18259408 2.11833709 -63.48510742 1.65087891 C-61.06032473 1.59773699 -58.63563812 1.54112328 -56.2109375 1.484375 C-55.52493973 1.47079956 -54.83894196 1.45722412 -54.13215637 1.4432373 C-49.59765522 1.33622234 -45.07979829 1.11300588 -40.55235481 0.83624649 C-27.03887961 0.03608447 -13.53354565 0.02007706 0 0 Z " fill="#4BA077" transform="translate(814.59765625,422.796875)"/>
<path d="M0 0 C1.18033813 0.02090698 1.18033813 0.02090698 2.38452148 0.04223633 C7.78335904 0.18570279 7.78335904 0.18570279 8.90625 1.30859375 C11.61534352 1.62455039 14.31483308 1.88442318 17.03125 2.12109375 C41.85962196 4.51994828 65.47590543 8.17840374 89.58911133 14.46630859 C92.3965258 15.179165 95.20117028 15.82260091 98.03515625 16.41796875 C101.27699573 17.16382082 103.98249626 18.01156816 106.96875 19.43359375 C107.72285156 19.78679687 108.47695312 20.14 109.25390625 20.50390625 C110.07181641 20.90222656 110.07181641 20.90222656 110.90625 21.30859375 C109.24391811 25.23923073 107.30759214 26.52512306 103.40625 28.30859375 C83.80961887 36.1472462 62.74329334 38.36712384 41.90625 40.30859375 C40.89304687 40.40382324 39.87984375 40.49905273 38.8359375 40.59716797 C2.93525036 43.87109277 -33.08298085 44.64854198 -69.11206055 44.56933594 C-74.39116742 44.55784579 -79.67007454 44.56477432 -84.94917488 44.57624054 C-107.41151132 44.61732407 -129.71411567 44.4184293 -152.09375 42.30859375 C-149.19495656 39.25652209 -145.93142929 37.28794096 -142.28125 35.24609375 C-141.24629395 34.66661987 -141.24629395 34.66661987 -140.19042969 34.07543945 C-127.98233966 27.38348839 -115.09142527 21.12607961 -101.7265625 17.125 C-99.61041571 16.46880611 -97.52644922 15.70928217 -95.45703125 14.91796875 C-64.42042793 3.17958036 -32.89781911 -0.61479154 0 0 Z " fill="#F9FAF8" transform="translate(924.09375,173.69140625)"/>
<path d="M0 0 C1.51110352 -0.01836914 1.51110352 -0.01836914 3.05273438 -0.03710938 C19.9925053 -0.07021642 33.98414362 7.07745448 46.375 18.375 C60.2630346 32.93233747 63.32128751 50.01239882 63 69.2734375 C62.33930746 86.68819181 54.11167901 100.43921599 41.6875 112.1875 C28.53712772 124.07937618 13.3860505 128.67040149 -4.19921875 128.53125 C-20.13791886 127.61763929 -35.07997466 119.12093676 -45.90771484 107.76757812 C-58.39033946 93.72733716 -63.32449546 75.94164914 -62.48730469 57.36181641 C-61.13377599 40.52588537 -53.02814798 25.22756383 -40.3125 14.1875 C-27.86202037 4.46413231 -15.70731284 0.00993505 0 0 Z M-30.3125 24.1875 C-31.08464844 24.81140625 -31.85679687 25.4353125 -32.65234375 26.078125 C-40.83915086 33.41126505 -47.6520644 45.13564737 -48.46191406 56.23535156 C-49.3551498 73.22089735 -46.03566528 87.01899934 -34.578125 100.1796875 C-23.5837134 110.75123712 -10.33469831 113.86871894 4.35546875 113.5859375 C17.0356992 112.94499378 27.90083277 107.2680357 36.6875 98.1875 C42.17400643 91.83794761 45.27926484 85.17461159 47.6875 77.1875 C47.91308594 76.52234375 48.13867188 75.8571875 48.37109375 75.171875 C52.00305929 63.24900881 49.67542198 50.28352792 44.26171875 39.29296875 C42.83597916 36.8356863 41.32680774 34.50662564 39.6875 32.1875 C38.945 31.135625 38.2025 30.08375 37.4375 29 C26.93090783 18.25462164 14.36928776 13.17780436 -0.5 12.875 C-12.35250356 12.9918886 -21.22599247 16.70273268 -30.3125 24.1875 Z " fill="#EE7435" transform="translate(701.3125,284.8125)"/>
<path d="M0 0 C13.42959452 10.59784921 23.35006176 24.7896484 26 42 C26.26247899 45.693042 26.28052394 49.36147259 26.25 53.0625 C26.26160156 54.47499023 26.26160156 54.47499023 26.2734375 55.91601562 C26.22464583 73.44442151 18.55097148 87.9915087 6.875 100.6875 C-6.01484592 113.08842073 -22.81309195 118.36782937 -40.3671875 118.21875 C-57.39901991 117.1931773 -72.78417818 108.27270141 -84.41796875 96.15625 C-97.15416787 81.35177923 -100.16898692 61.91877687 -99 43 C-96.99070004 27.51548651 -88.19538753 12.98357616 -76.5 2.875 C-72.22216087 -0.37800904 -67.70883897 -2.93480728 -62.9375 -5.375 C-62.28910156 -5.70902832 -61.64070313 -6.04305664 -60.97265625 -6.38720703 C-41.67292708 -15.79970045 -17.30415975 -12.03656994 0 0 Z M-73.30859375 18.796875 C-83.0386627 31.47068305 -87.22644105 43.98813073 -86 60 C-83.80455291 73.9776798 -76.43885797 86.21505401 -65.46875 95.03515625 C-55.44640058 101.9771071 -43.18383165 105.69591796 -31 104 C-15.67812642 100.81040411 -3.92896659 94.16762 5 81 C12.76382894 68.10471331 14.83421085 55.2160441 11.875 40.4375 C8.20709927 26.05864034 0.20989424 16.8408586 -12 9 C-12.62132812 8.58492188 -13.24265625 8.16984375 -13.8828125 7.7421875 C-32.47224526 -3.93024702 -59.16944989 3.66969459 -73.30859375 18.796875 Z " fill="#EF7333" transform="translate(510,295)"/>
<path d="M0 0 C40.59 0 81.18 0 123 0 C123 7.26 123 14.52 123 22 C106.17 22 89.34 22 72 22 C72 55 72 88 72 122 C65.07 122 58.14 122 51 122 C51 88.67 51 55.34 51 21 C34.17 21 17.34 21 0 21 C0 14.07 0 7.14 0 0 Z " fill="#EF6E2F" transform="translate(525,289)"/>
<path d="M0 0 C41.25 0 82.5 0 125 0 C125 6.93 125 13.86 125 21 C107.84 21 90.68 21 73 21 C73 53.67 73 86.34 73 120 C66.07 120 59.14 120 52 120 C51.505 71.49 51.505 71.49 51 22 C34.17 21.67 17.34 21.34 0 21 C0 14.07 0 7.14 0 0 Z " fill="#104978" transform="translate(1143,289)"/>
<path d="M0 0 C6.93 0 13.86 0 21 0 C21 32.34 21 64.68 21 98 C44.43 98 67.86 98 92 98 C92 105.26 92 112.52 92 120 C61.64 120 31.28 120 0 120 C0 80.4 0 40.8 0 0 Z " fill="#114C79" transform="translate(935,289)"/>
<path d="M0 0 C7.97317603 -0.06298296 15.94544645 -0.12307906 23.9186554 -0.15525055 C27.63191415 -0.17106515 31.34496608 -0.19218421 35.05810547 -0.22631836 C38.63724175 -0.25901319 42.21617798 -0.27687419 45.79545212 -0.28463173 C47.15815757 -0.29015716 48.52085259 -0.30094704 49.88347244 -0.31719017 C51.79801931 -0.33909636 53.71276925 -0.34022653 55.62744141 -0.34057617 C56.71554108 -0.34723801 57.80364075 -0.35389984 58.92471313 -0.36076355 C63.73154804 0.20312883 67.77961354 2.11342577 70.8125 5.9375 C74.43184122 11.00457771 74.23848587 15.71044663 74.3125 21.75 C74.35600586 22.91015625 74.35600586 22.91015625 74.40039062 24.09375 C74.46160541 29.70667526 73.60373383 34.54521876 70 39 C64.55726464 44.35518336 60.08928569 44.56872542 52.60157776 44.56648254 C51.24609361 44.54095729 49.89061981 44.51487745 48.53515625 44.48828125 C47.13269823 44.47894277 45.73022377 44.47183155 44.32774353 44.46684265 C40.65634237 44.44785349 36.98594787 44.39882588 33.31494141 44.34332275 C29.56101338 44.29195343 25.80691605 44.26901618 22.05273438 44.24414062 C14.70093714 44.19335452 7.35189537 44.09547916 0 44 C0 29.48 0 14.96 0 0 Z " fill="#F8F9F9" transform="translate(791,311)"/>
<path d="M0 0 C7.30798716 5.03415613 12.08618402 10.19812775 16.5625 17.8125 C17.09460083 18.70980835 17.09460083 18.70980835 17.63745117 19.62524414 C19.59240096 23.11834007 20.55634812 25.6767192 20.125 29.6875 C14.82742653 32.87816558 8.80977461 32.09654693 2.8125 32.125 C1.60142578 32.15787109 0.39035156 32.19074219 -0.85742188 32.22460938 C-8.33473174 32.26962876 -12.28736588 31.72793133 -17.875 26.6875 C-22.36487026 24.72318176 -26.00186736 24.05870869 -30.875 24.6875 C-34.0398233 26.08068766 -37.06697716 27.62743112 -40.10546875 29.27734375 C-46.18206464 32.37135097 -52.24738096 31.87107157 -58.9375 31.875 C-60.03900391 31.88724609 -61.14050781 31.89949219 -62.27539062 31.91210938 C-63.85803711 31.91500977 -63.85803711 31.91500977 -65.47265625 31.91796875 C-66.43695557 31.92207764 -67.40125488 31.92618652 -68.39477539 31.93041992 C-70.875 31.6875 -70.875 31.6875 -73.875 29.6875 C-73.51985949 20.09870623 -68.38004741 12.50231157 -61.875 5.6875 C-44.27656805 -9.97386801 -20.19046703 -12.14711025 0 0 Z " fill="#F7F8F9" transform="translate(1108.875,305.3125)"/>
<path d="M0 0 C6.6 0 13.2 0 20 0 C20 39.6 20 79.2 20 120 C13.4 120 6.8 120 0 120 C0 80.4 0 40.8 0 0 Z " fill="#0F4B78" transform="translate(900,289)"/>
<path d="M0 0 C10.90354161 7.48559204 18.25968668 17.95316 21.265625 30.8828125 C24.1215675 47.52961249 19.91497732 61.63903823 10.390625 75.421875 C1.69323304 86.25180056 -11.71352527 91.64067041 -25.18359375 93.515625 C-39.39333805 94.08477364 -52.35058574 88.32262092 -62.734375 78.8828125 C-69.5250057 71.60247286 -73.72146428 62.67897957 -75.984375 53.0703125 C-76.16613281 52.461875 -76.34789062 51.8534375 -76.53515625 51.2265625 C-79.45853608 37.19433933 -75.13159614 24.62264514 -67.82421875 12.7578125 C-52.26305758 -9.97271592 -22.31652448 -14.17692256 0 0 Z M-61.234375 11.2578125 C-71.18758502 22.98766041 -72.82681922 34.71568116 -72.2109375 49.48144531 C-71.27240722 60.20577189 -65.05586993 70.4437521 -57.359375 77.7578125 C-45.63676909 87.48508123 -33.60072791 89.1363746 -18.984375 88.0703125 C-7.35793156 86.05334938 2.65982073 79.08811267 9.515625 69.5625 C16.77505384 57.50126147 19.04551539 43.21073455 16.51953125 29.34765625 C12.74520515 17.25701839 5.72577515 8.6220524 -4.984375 2.0703125 C-24.88835148 -8.30742925 -45.56872245 -5.08895538 -61.234375 11.2578125 Z " fill="#F6F1EB" transform="translate(500.984375,305.9296875)"/>
<path d="M0 0 C10.90796 8.31530448 17.86550853 20.42463425 20 34 C21.16691989 47.735221 18.14830747 60.80119552 10 72 C9.54882812 72.63292969 9.09765625 73.26585937 8.6328125 73.91796875 C1.6624233 82.83770408 -8.91505534 88.92397568 -20 91 C-30.59855391 92.19220282 -41.43996239 92.16882416 -51 87 C-51.94230469 86.49082031 -52.88460937 85.98164063 -53.85546875 85.45703125 C-65.7938921 78.41642261 -73.58092257 67.34860864 -77.58740234 54.05029297 C-79.58637283 44.11694731 -79.26692493 31.21786073 -75 22 C-74.62101563 21.12601562 -74.24203125 20.25203125 -73.8515625 19.3515625 C-68.16569796 7.61830447 -58.84435331 -0.7714116 -47 -6 C-46.28585937 -6.33773438 -45.57171875 -6.67546875 -44.8359375 -7.0234375 C-29.56271277 -13.25857419 -13.38454219 -7.82987873 0 0 Z M-64.953125 12.3984375 C-73.54816223 23.32266421 -74.92016865 35.63369833 -74 49 C-72.12554673 60.72327551 -65.37825495 71.81090543 -56 79 C-43.37324068 86.67466865 -30.74459061 89.44494256 -16.171875 86.12890625 C-4.400359 81.87498163 4.81264863 74.31916758 10.47265625 63.07421875 C16.31435567 49.67066936 17.80262807 38.01510422 13 24 C6.36904952 9.5679313 -3.19579459 1.64307032 -18 -4 C-20.92334973 -4.91778291 -20.92334973 -4.91778291 -24 -5 C-24.85980469 -5.061875 -25.71960938 -5.12375 -26.60546875 -5.1875 C-42.32764732 -5.83835345 -54.25726835 1.36122372 -64.953125 12.3984375 Z " fill="#F8F3EE" transform="translate(731,307)"/>
<path d="M0 0 C6.98533463 1.91501361 9.94652599 5.65250003 13.75 11.75390625 C16.68169403 19.488178 17.98369905 28.52924588 16.75 36.75390625 C15.2265625 39.59765625 15.2265625 39.59765625 13.75 41.75390625 C1.88667573 41.30623364 -7.33047393 34.132737 -15.25 25.75390625 C-20.55286457 19.25362065 -24.53508987 11.66891341 -25.75 3.31640625 C-25.25 0.75390625 -25.25 0.75390625 -23.52734375 -0.8828125 C-16.75824394 -4.93498374 -7.12134818 -1.77177773 0 0 Z " fill="#F6F7F8" transform="translate(1058.25,353.24609375)"/>
<path d="M0 0 C1.10883254 9.53595983 -3.46645293 18.51067345 -9.1875 25.875 C-16.04267652 33.68512648 -25.82132722 41.49623349 -36.5625 42.25 C-37.366875 42.1675 -38.17125 42.085 -39 42 C-43.10821735 35.17479429 -41.3745911 25.79737023 -40 18.3125 C-38.13254209 11.07938838 -34.46544768 4.80409018 -28.015625 0.75390625 C-20.22638149 -2.50199754 -7.49884884 -4.26339047 0 0 Z " fill="#F7F8F9" transform="translate(1130,353)"/>
<path d="M0 0 C0.7355908 0.00184359 1.4711816 0.00368717 2.22906303 0.00558662 C3.07322777 0.0028373 3.9173925 0.00008797 4.78713799 -0.00274467 C5.71502129 0.00444588 6.64290459 0.01163643 7.59890556 0.01904488 C8.57455467 0.01875282 9.55020378 0.01846077 10.55541801 0.01815987 C13.79119469 0.01955698 17.02674317 0.03513615 20.26247978 0.05078316 C22.50164476 0.05451193 24.74081137 0.05735954 26.97997856 0.0593586 C32.88193048 0.06700574 38.78378443 0.0866635 44.68569756 0.10876656 C50.70476773 0.12920173 56.72385369 0.13835533 62.74294853 0.14843941 C74.5593979 0.16990837 86.37577445 0.20405733 98.19216728 0.24609566 C97.78224541 0.71660347 97.37232353 1.18711128 96.94997978 1.67187691 C96.41115166 2.29449409 95.87232353 2.91711128 95.31716728 3.55859566 C94.78349541 4.17347847 94.24982353 4.78836128 93.69997978 5.42187691 C92.02812258 7.38107778 92.02812258 7.38107778 90.19216728 10.24609566 C87.2428014 10.54281559 84.5032237 10.64495552 81.55154228 10.61841011 C80.65713432 10.62206078 79.76272636 10.62571144 78.84121513 10.62947273 C75.87467473 10.63760128 72.90867662 10.62394902 69.94216728 10.60937691 C67.88715426 10.60885858 65.83214075 10.60937523 63.77712822 10.61088753 C59.46618072 10.6107977 55.15541983 10.60034694 50.84451103 10.5822773 C45.30917333 10.55958982 39.7741085 10.55904492 34.23873711 10.56579494 C29.99406304 10.56913099 25.74945157 10.56251171 21.50478935 10.55266571 C19.46337016 10.54880713 17.421944 10.5476682 15.38052177 10.54925156 C12.53114282 10.54962101 9.68211819 10.53703581 6.83279228 10.52075386 C5.55788933 10.52446999 5.55788933 10.52446999 4.25723076 10.52826118 C-1.57909265 10.47483572 -1.57909265 10.47483572 -3.80783272 8.24609566 C-4.05783272 5.24609566 -4.05783272 5.24609566 -3.80783272 2.24609566 C-1.80783272 0.24609566 -1.80783272 0.24609566 0 0 Z " fill="#ED7936" transform="translate(327.8078327178955,292.75390434265137)"/>
<path d="M0 0 C1.61882584 0.00666183 1.61882584 0.00666183 3.27035522 0.01345825 C5.10202744 0.01368484 5.10202744 0.01368484 6.97070312 0.01391602 C8.30805625 0.02413001 9.64540772 0.03456201 10.98275757 0.04519653 C12.34753208 0.04892623 13.71230926 0.05177341 15.0770874 0.05377197 C18.6709023 0.0614119 22.2645558 0.08106331 25.85830688 0.10317993 C29.52476823 0.12363072 33.19125564 0.13277204 36.85775757 0.14285278 C44.05314369 0.164309 51.24839677 0.19844911 58.44369507 0.24050903 C58.44369507 3.54050903 58.44369507 6.84050903 58.44369507 10.24050903 C50.67253199 10.30999712 42.90144159 10.36331405 35.13004589 10.39594555 C31.52151204 10.41160654 27.91319063 10.43285219 24.30477905 10.46682739 C20.82291384 10.4994062 17.34125306 10.51735879 13.85924721 10.52514076 C11.8832741 10.53338759 9.90738332 10.55680942 7.93153381 10.58039856 C6.73051529 10.58062515 5.52949677 10.58085175 4.29208374 10.58108521 C2.70323616 10.59107796 2.70323616 10.59107796 1.08229065 10.60127258 C-1.55630493 10.24050903 -1.55630493 10.24050903 -3.40229797 8.87937927 C-5.0275675 6.57124253 -4.90962092 4.99637374 -4.55630493 2.24050903 C-2.55630493 0.24050903 -2.55630493 0.24050903 0 0 Z " fill="#E97434" transform="translate(343.5563049316406,343.7594909667969)"/>
<path d="M0 0 C1.08089401 0.00022659 2.16178802 0.00045319 3.2754364 0.00068665 C4.44113663 0.0161705 5.60683685 0.03165436 6.80786133 0.04760742 C8.00220291 0.05185226 9.19654449 0.05609711 10.42707825 0.06047058 C14.24824402 0.07728658 18.06888574 0.11494524 21.88989258 0.15307617 C24.4777756 0.16811918 27.06566687 0.18180825 29.65356445 0.1940918 C36.00337628 0.22719984 42.35279553 0.27900317 48.70239258 0.34057617 C48.04239258 3.97057617 47.38239258 7.60057617 46.70239258 11.34057617 C39.35174781 11.41462565 32.00131923 11.46913106 24.65039062 11.50537109 C22.14872456 11.52047562 19.64708505 11.54096046 17.14550781 11.56689453 C13.55372574 11.60320392 9.96229317 11.62028592 6.37036133 11.63354492 C5.24840866 11.64902878 4.12645599 11.66451263 2.97050476 11.6804657 C1.409226 11.68080559 1.409226 11.68080559 -0.18359375 11.68115234 C-1.10070633 11.68781418 -2.01781891 11.69447601 -2.96272278 11.70133972 C-5.75670154 11.26964144 -6.63824496 10.59424923 -8.29760742 8.34057617 C-8.72050053 5.52128878 -8.8075253 4.03978902 -7.10527039 1.70561218 C-4.64649179 -0.15110635 -3.06372691 -0.02142466 0 0 Z " fill="#EA7837" transform="translate(359.297607421875,317.659423828125)"/>
<path d="M0 0 C10.06696197 1.15825511 18.10995822 5.55997705 25 13 C30 19.60583942 30 19.60583942 30 24 C27.45906145 24.64881448 24.91731727 25.29412899 22.375 25.9375 C21.66214844 26.11990234 20.94929688 26.30230469 20.21484375 26.49023438 C18.80153571 26.84680292 17.38441453 27.18860041 15.96386719 27.51513672 C13.79918631 28.01593435 13.79918631 28.01593435 10.9765625 29.06640625 C6.69763988 28.97094472 4.64304834 27.22302549 1.60546875 24.31201172 C-1.37432385 20.02085662 -0.84055967 15.59557893 -0.5 10.5625 C-0.46390625 9.54478516 -0.4278125 8.52707031 -0.390625 7.47851562 C-0.29684854 4.98171728 -0.16583025 2.49287512 0 0 Z " fill="#F8F6F2" transform="translate(478,309)"/>
<path d="M0 0 C0.84827362 0.00444122 1.69654724 0.00888245 2.57052612 0.01345825 C3.53137115 0.01360931 4.49221619 0.01376038 5.48217773 0.01391602 C6.52179657 0.02423859 7.56141541 0.03456116 8.63253784 0.04519653 C9.6951181 0.04802643 10.75769836 0.05085632 11.85247803 0.05377197 C15.25584033 0.06499264 18.6589422 0.09010066 22.06222534 0.11550903 C24.36560697 0.12553639 26.6689927 0.13466266 28.97238159 0.14285278 C34.6274188 0.1649381 40.28230347 0.19843415 45.93722534 0.24050903 C46.60842083 1.69676353 47.27404341 3.1555877 47.93722534 4.61550903 C48.30847534 5.42761841 48.67972534 6.23972778 49.06222534 7.07644653 C49.93722534 9.24050903 49.93722534 9.24050903 49.93722534 11.24050903 C42.72909518 11.34177246 35.52114782 11.41191682 28.31246948 11.4602356 C25.85927475 11.48037437 23.40612815 11.50768721 20.95309448 11.54226685 C17.43075701 11.59068386 13.90905311 11.61345532 10.38644409 11.63113403 C8.73632576 11.66210175 8.73632576 11.66210175 7.0528717 11.69369507 C6.03203995 11.69399719 5.01120819 11.69429932 3.95944214 11.6946106 C2.61042061 11.70793427 2.61042061 11.70793427 1.23414612 11.7215271 C-1.06277466 11.24050903 -1.06277466 11.24050903 -2.85713196 9.37619019 C-4.33051527 6.76623206 -4.45145377 5.19447026 -4.06277466 2.24050903 C-2.06277466 0.24050903 -2.06277466 0.24050903 0 0 Z " fill="#EC7C3D" transform="translate(359.0627746582031,368.7594909667969)"/>
<path d="M0 0 C7.28019579 1.25619065 18.03795957 3.16988956 22.74609375 9.2578125 C24.10724478 13.20449922 24.22040437 16.02070278 23 20 C21.96850586 21.83105469 21.96850586 21.83105469 20.71484375 23.671875 C20.04291992 24.66767578 20.04291992 24.66767578 19.35742188 25.68359375 C18.88884766 26.36550781 18.42027344 27.04742187 17.9375 27.75 C17.46505859 28.44738281 16.99261719 29.14476562 16.50585938 29.86328125 C15.34242719 31.57904993 14.17190026 33.29000398 13 35 C9.19970703 34.22753906 9.19970703 34.22753906 7.40234375 32.1796875 C1.27527985 22.53977364 -1.66546368 14.54775203 -1 3 C-0.67 2.01 -0.34 1.02 0 0 Z " fill="#F7F5F3" transform="translate(436,341)"/>
<path d="M0 0 C0.65637529 12.31068317 0.19200612 22.50948438 -7.625 32.75 C-10 35 -10 35 -13 35 C-14.85340741 32.7853854 -16.49393575 30.61903856 -18.125 28.25 C-18.58003906 27.61578125 -19.03507813 26.9815625 -19.50390625 26.328125 C-22.23085168 22.44404842 -24.24608742 19.4767508 -23.7578125 14.5625 C-22.09076582 7.81198997 -22.09076582 7.81198997 -19.07421875 5.56640625 C-16.74649788 4.53320372 -14.43449643 3.74453046 -12 3 C-10.56048102 2.42166694 -9.1228321 1.83864743 -7.6875 1.25 C-4 0 -4 0 0 0 Z " fill="#F8F6F4" transform="translate(739,341)"/>
<path d="M0 0 C1.28443388 18.37975488 1.28443388 18.37975488 -1.46484375 23.98828125 C-4.16043498 26.56644078 -6.4331501 27.75092589 -10.11328125 28.3359375 C-16.76045681 28.06859223 -23.05128103 24.72775438 -29 22 C-28.30110117 14.98559723 -22.85707024 10.66110775 -18 6 C-12.06812459 1.45685796 -7.5540176 -0.14252863 0 0 Z " fill="#F9F6F3" transform="translate(469,310)"/>
<path d="M0 0 C11.02388892 0.9037924 17.40868039 4.6797246 25.11328125 12.70703125 C27.5714987 15.69455432 28.82907653 18.33110646 30 22 C25.63991873 23.69558716 21.26166376 25.30252094 16.8125 26.75 C16.01457031 27.01296875 15.21664062 27.2759375 14.39453125 27.546875 C10.69561944 28.24683221 8.44834525 27.79959934 5.14355469 25.97509766 C2.11760167 23.84467352 0.27834305 22.22685239 -0.55810547 18.54003906 C-0.68895952 15.70401938 -0.61218418 12.95833898 -0.4375 10.125 C-0.39012695 8.66320312 -0.39012695 8.66320312 -0.34179688 7.171875 C-0.25965789 4.77811023 -0.14491673 2.39064832 0 0 Z " fill="#FAF8F6" transform="translate(706,310)"/>
<path d="M0 0 C0.96566021 11.80251365 -0.33438212 19.97447718 -7 30 C-9.234375 32.390625 -9.234375 32.390625 -11 34 C-16.60297301 32.13234233 -20.18089407 25.77140492 -23.15283203 20.81396484 C-24.77746229 17.33528969 -24.15814032 14.59525626 -22.984375 11.0859375 C-22.65953125 10.39757812 -22.3346875 9.70921875 -22 9 C-21.74347656 8.29488281 -21.48695313 7.58976562 -21.22265625 6.86328125 C-19.48403406 4.21368769 -17.66027406 3.79806109 -14.6875 2.8125 C-13.74261719 2.48894531 -12.79773438 2.16539062 -11.82421875 1.83203125 C-7.72320411 0.62384851 -4.29441603 0 0 0 Z " fill="#F7F5F3" transform="translate(511,342)"/>
<path d="M0 0 C0.2335806 3.5405429 0.37479801 7.07910068 0.5 10.625 C0.60054687 12.12353516 0.60054687 12.12353516 0.703125 13.65234375 C0.89574158 20.92361977 0.89574158 20.92361977 -1.70214844 24.04541016 C-4.99542351 26.61331756 -7.01694477 27.96219018 -11.25 28.125 C-25 24 -25 24 -29 22 C-27.65260308 14.46139949 -21.09677289 8.43960899 -15.046875 4.21875 C-10.20135261 1.3336298 -5.68626123 -0.17677496 0 0 Z " fill="#FAF7F4" transform="translate(697,310)"/>
<path d="M0 0 C7.40245458 0.4354385 14.57416866 2.21223534 21 6 C23.0235178 8.88853305 23.83656679 11.48618601 24 15 C23.16804343 19.28057707 20.99641891 22.61483807 18.6875 26.25 C18.29626953 26.8996875 17.90503906 27.549375 17.50195312 28.21875 C16.32421875 30.078125 16.32421875 30.078125 14 33 C10 33 10 33 8.4375 31.85546875 C0.09629217 22.17694771 -0.59428389 12.23234333 0 0 Z " fill="#F8F7F5" transform="translate(664,342)"/>
<path d="M0 0 C6.33069267 1.81222119 9.83649092 8.48076573 13.0703125 13.87890625 C13.78853668 15.52401301 14.47973329 17.1837843 15.0703125 18.87890625 C9.05153001 22.11978913 3.57354853 23.28525664 -3.1796875 23.31640625 C-4.18902344 23.3309082 -4.18902344 23.3309082 -5.21875 23.34570312 C-9.81594539 23.26847751 -13.07931682 22.39076049 -16.9296875 19.87890625 C-18.3046875 17.69140625 -18.3046875 17.69140625 -18.9296875 15.87890625 C-17.2849932 13.5655885 -15.63899095 11.25322174 -13.9921875 8.94140625 C-13.52361328 8.28205078 -13.05503906 7.62269531 -12.57226562 6.94335938 C-8.48241746 1.2058026 -7.15558544 0.0093415 0 0 Z " fill="#F9F7F5" transform="translate(703.9296875,364.12109375)"/>
<path d="M0 0 C7.45646816 0.34968264 7.45646816 0.34968264 10.75 2.8671875 C12.54733832 4.91448678 14.10905888 7.00844519 15.64453125 9.2578125 C16.15113281 9.92296875 16.65773438 10.588125 17.1796875 11.2734375 C20.64453125 15.86749217 20.64453125 15.86749217 20.64453125 18.2578125 C12.02506678 23.00169467 3.22959716 23.40046568 -6.35546875 22.2578125 C-9.70746192 20.93981791 -11.58558188 19.61516303 -14.35546875 17.2578125 C-12.7509721 13.73126258 -10.64278677 10.75264701 -8.35546875 7.6328125 C-7.65421875 6.67117188 -6.95296875 5.70953125 -6.23046875 4.71875 C-2.87498284 0.31467474 -2.87498284 0.31467474 0 0 Z " fill="#F8F8F6" transform="translate(470.35546875,364.7421875)"/>
<path d="M0 0 C1.62298261 -0.03296052 3.24568431 -0.08733987 4.8671875 -0.1640625 C18.30413674 -0.79600163 18.30413674 -0.79600163 23.51831055 2.94433594 C29.38989258 9.3990506 29.38989258 9.3990506 29.38989258 11.70019531 C23.33932263 11.79908569 17.28922323 11.8716745 11.23803711 11.91992188 C9.17968552 11.940035 7.12139106 11.96732929 5.06323242 12.00195312 C2.10426744 12.05048415 -0.85394203 12.07316697 -3.81323242 12.09082031 C-5.19312347 12.12178802 -5.19312347 12.12178802 -6.60089111 12.15338135 C-12.96869218 12.15561687 -12.96869218 12.15561687 -16.23022461 9.83984375 C-17.61010742 7.70019531 -17.61010742 7.70019531 -17.48510742 5.07519531 C-14.97796063 -1.72991741 -6.16694468 0.09160974 0 0 Z " fill="#EA7D42" transform="translate(398.610107421875,393.2998046875)"/>
<path d="M0 0 C3.5386994 1.65139305 4.81070153 2.71605229 7 6 C7.45971784 10.96495273 7.15065843 14.06167696 4 18 C0.57840405 20.56619697 -2.84844133 20.50984054 -7 20 C-9.63016161 17.8272578 -11.47336894 16.05326212 -13 13 C-13.39447548 8.81855989 -13.45035186 6.69053952 -11.125 3.125 C-7.53413571 -0.46586429 -5.00759994 -0.3394983 0 0 Z " fill="#F2F4F5" transform="translate(1085,338)"/>
<path d="M0 0 C4.27060618 -0.11589162 8.54080984 -0.18714802 12.8125 -0.25 C14.02744141 -0.28351563 15.24238281 -0.31703125 16.49414062 -0.3515625 C18.23920898 -0.37089844 18.23920898 -0.37089844 20.01953125 -0.390625 C21.62985229 -0.4220459 21.62985229 -0.4220459 23.27270508 -0.45410156 C26 0 26 0 27.88549805 1.86035156 C29 4 29 4 28.8125 6.625 C28 9 28 9 26 11 C21.87348942 11.48451382 17.71421051 11.37039466 13.5625 11.375 C12.40427734 11.39949219 11.24605469 11.42398437 10.05273438 11.44921875 C8.94349609 11.45308594 7.83425781 11.45695312 6.69140625 11.4609375 C5.16302124 11.47326416 5.16302124 11.47326416 3.60375977 11.48583984 C1 11 1 11 -0.87133789 9.13525391 C-2 7 -2 7 -1.75 4.375 C-1 2 -1 2 0 0 Z " fill="#E8793F" transform="translate(312,318)"/>
<path d="M0 0 C2.4375 1.625 2.4375 1.625 4 4 C4.63656938 7.73984509 4.25584708 9.50962644 2.5 12.875 C-0.12533046 15.10653089 -0.78479929 15.38744784 -4.0625 15.5625 C-8 15 -8 15 -10 13.4375 C-11.38885542 10.05216491 -11.45310904 7.62487235 -11 4 C-8.11188513 -0.5054592 -5.11821063 -0.73117295 0 0 Z " fill="#F9F6F3" transform="translate(705,341)"/>
<path d="M0 0 C2.4375 1.625 2.4375 1.625 4 4 C4.63656938 7.73984509 4.25584708 9.50962644 2.5 12.875 C-0.12533046 15.10653089 -0.78479929 15.38744784 -4.0625 15.5625 C-8 15 -8 15 -10 13.4375 C-11.38885542 10.05216491 -11.45310904 7.62487235 -11 4 C-8.11188513 -0.5054592 -5.11821063 -0.73117295 0 0 Z " fill="#F9F6F3" transform="translate(477,341)"/>
<path d="M0 0 C-0.66 0.33 -1.32 0.66 -2 1 C-0.68 1.66 0.64 2.32 2 3 C-5.76215111 4.42701429 -13.53151141 5.80453053 -21.3125 7.125 C-22.35728516 7.30675781 -23.40207031 7.48851562 -24.47851562 7.67578125 C-29.36520174 8.50213758 -34.02241178 9.25701832 -39 9 C-36.2981418 6.2981418 -33.33286502 5.88531925 -29.7265625 5.01953125 C-29.00640961 4.84242111 -28.28625671 4.66531097 -27.54428101 4.48283386 C-26.02030506 4.11036209 -24.49542217 3.74158465 -22.96972656 3.3762207 C-20.63813135 2.81565705 -18.31132124 2.23772308 -15.984375 1.65820312 C-14.50286203 1.2984157 -13.02109864 0.93965755 -11.5390625 0.58203125 C-10.84414703 0.40815384 -10.14923157 0.23427643 -9.43325806 0.05513 C-5.99700763 -0.75298393 -3.35165594 -1.31293709 0 0 Z " fill="#AECD79" transform="translate(468,455)"/>
<path d="M0 0 C7.21486296 0.6081206 13.94658393 2.08185901 20.9375 3.9375 C21.97712891 4.20240234 23.01675781 4.46730469 24.08789062 4.74023438 C25.57385742 5.12985352 25.57385742 5.12985352 27.08984375 5.52734375 C28.43357056 5.87913696 28.43357056 5.87913696 29.80444336 6.23803711 C32 7 32 7 34 9 C26.1148233 8.1848838 18.28224608 7.07308217 10.4375 5.9375 C9.14263672 5.75123047 7.84777344 5.56496094 6.51367188 5.37304688 C3.34226115 4.91664459 0.17104585 4.45892939 -3 4 C-3 3.34 -3 2.68 -3 2 C-2.01 2 -1.02 2 0 2 C0 1.34 0 0.68 0 0 Z " fill="#359C9C" transform="translate(1221,457)"/>
<path d="M0 0 C-2.53390171 5.70127885 -6.15810142 9.45877948 -11.375 12.8125 C-12.74785156 13.71935547 -12.74785156 13.71935547 -14.1484375 14.64453125 C-17.34975512 16.16625346 -19.49904531 16.26334615 -23 16 C-18.03213013 10.51821255 -7.65637479 0 0 0 Z " fill="#F8F5F2" transform="translate(512,378)"/>
<path d="M0 0 C-0.31710937 1.134375 -0.63421875 2.26875 -0.9609375 3.4375 C-2.09157036 7.96003145 -2.43179616 12.35505777 -2.625 17 C-2.66367187 17.77472656 -2.70234375 18.54945313 -2.7421875 19.34765625 C-2.83521357 21.23143415 -2.91863175 23.11568256 -3 25 C-3.33 25 -3.66 25 -4 25 C-4 21.04 -4 17.08 -4 13 C-4.99 13 -5.98 13 -7 13 C-7 17.29 -7 21.58 -7 26 C-7.33 26 -7.66 26 -8 26 C-8.65625 7.77083333 -8.65625 7.77083333 -5 1 C-2 0 -2 0 0 0 Z " fill="#F4E3D5" transform="translate(432,329)"/>
<path d="M0 0 C2 1 2 1 2.8515625 3.046875 C4.97764627 10.47743039 5.33064873 17.29710915 5 25 C4.67 25 4.34 25 4 25 C4 21.37 4 17.74 4 14 C3.01 14.33 2.02 14.66 1 15 C-2.31707317 4.63414634 -2.31707317 4.63414634 0 0 Z " fill="#F7E7DE" transform="translate(746,329)"/>
<path d="M0 0 C1.05960938 0.37125 2.11921875 0.7425 3.2109375 1.125 C4.00757813 1.41375 4.80421875 1.7025 5.625 2 C5.625 2.33 5.625 2.66 5.625 3 C-2.07267006 2.2036893 -9.71852921 1.12178733 -17.375 0 C-17.375 -0.33 -17.375 -0.66 -17.375 -1 C-11.03241059 -2.49237398 -6.1447999 -2.18481774 0 0 Z " fill="#54A8AE" transform="translate(1249.375,463)"/>
<path d="M0 0 C-0.99 0.495 -0.99 0.495 -2 1 C-0.68 1.66 0.64 2.32 2 3 C-1.14930893 4.04976964 -3.38814456 4.10131595 -6.6875 4.0625 C-7.68136719 4.05347656 -8.67523438 4.04445313 -9.69921875 4.03515625 C-10.83810547 4.01775391 -10.83810547 4.01775391 -12 4 C-11.67 3.01 -11.34 2.02 -11 1 C-7.08609399 -0.47694566 -4.00565371 -1.60226148 0 0 Z " fill="#A5C776" transform="translate(468,455)"/>
<path d="M0 0 C0.66 0.33 1.32 0.66 2 1 C0.73046875 2.49739583 -0.5390625 3.99479167 -1.80859375 5.4921875 C-3.0878152 7.00594079 -3.0878152 7.00594079 -4 9 C-6.30532837 10.30635274 -8.47571223 11.15857074 -11 12 C-9.49650623 8.33213607 -7.36271208 6.31089607 -4.375 3.75 C-3.14910156 2.69039063 -3.14910156 2.69039063 -1.8984375 1.609375 C-1.27195312 1.07828125 -0.64546875 0.5471875 0 0 Z " fill="#F5EAE1" transform="translate(446,306)"/>
<path d="M0 0 C-0.99 0.7734375 -0.99 0.7734375 -2 1.5625 C-5.75333644 4.61208585 -9.37602035 7.7986681 -13 11 C-13.66 10.34 -14.32 9.68 -15 9 C-13.45198822 7.48505255 -11.88597448 5.98848389 -10.3125 4.5 C-9.44238281 3.6646875 -8.57226562 2.829375 -7.67578125 1.96875 C-4.7506425 -0.18346888 -3.53366794 -0.45842179 0 0 Z " fill="#F18A52" transform="translate(680,303)"/>
<path d="M0 0 C2.97 0.33 5.94 0.66 9 1 C8.67 1.66 8.34 2.32 8 3 C5.36 3 2.72 3 0 3 C0 2.01 0 1.02 0 0 Z " fill="#1E8F91" transform="translate(1229,459)"/>
<path d="M0 0 C0.99 0.33 1.98 0.66 3 1 C3.33 3.31 3.66 5.62 4 8 C2 6.8125 2 6.8125 0 5 C-0.25 2.3125 -0.25 2.3125 0 0 Z " fill="#F3EAE1" transform="translate(501,307)"/>
</svg>
